<svg width="25" height="25" viewBox="0 0 25 25" fill="none" xmlns="http://www.w3.org/2000/svg">
<path d="M3.07324 6.96539H5.07324H21.0732" stroke="black" stroke-width="2" stroke-linecap="round" stroke-linejoin="round"/>
<path d="M19.0732 6.96539V20.9654C19.0732 21.4958 18.8625 22.0045 18.4875 22.3796C18.1124 22.7547 17.6037 22.9654 17.0732 22.9654H7.07324C6.54281 22.9654 6.0341 22.7547 5.65903 22.3796C5.28396 22.0045 5.07324 21.4958 5.07324 20.9654V6.96539M8.07324 6.96539V4.96539C8.07324 4.43496 8.28396 3.92625 8.65903 3.55118C9.0341 3.17611 9.54281 2.96539 10.0732 2.96539H14.0732C14.6037 2.96539 15.1124 3.17611 15.4875 3.55118C15.8625 3.92625 16.0732 4.43496 16.0732 4.96539V6.96539" stroke="black" stroke-width="2" stroke-linecap="round" stroke-linejoin="round"/>
<path d="M10.0732 11.9654V17.9654" stroke="black" stroke-width="2" stroke-linecap="round" stroke-linejoin="round"/>
<path d="M14.0732 11.9654V17.9654" stroke="black" stroke-width="2" stroke-linecap="round" stroke-linejoin="round"/>
</svg>
